{
  "accessors": [
    {
      "bufferView": 2,
      "componentType": 5126,
      "count": 2765,
      "max": [
        0.9934911727905273,
        0.9999504685401917,
        0.9934911727905273
      ],
      "min": [
        -0.9934911727905273,
        -0.9999504685401917,
        -0.9934912323951721
      ],
      "type": "VEC3"
    },
    {
      "bufferView": 2,
      "byteOffset": 33180,
      "componentType": 5126,
      "count": 2765,
      "max": [
        1.0,
        1.0,
        1.0
      ],
      "min": [
        -1.0,
        -1.0,
        -1.0
      ],
      "type": "VEC3"
    },
    {
      "bufferView": 1,
      "componentType": 5126,
      "count": 2765,
      "max": [
        0.5922457575798035,
        0.22712944447994232
      ],
      "min": [
        0.3905572295188904,
        0.028684549033641815
      ],
      "type": "VEC2"
    },
    {
      "bufferView": 0,
      "componentType": 5125,
      "count": 13440,
      "type": "SCALAR"
    },
    {
      "bufferView": 2,
      "byteOffset": 66360,
      "componentType": 5126,
      "count": 2318,
      "max": [
        0.8276987671852112,
        0.08104167133569717,
        0.5281888246536255
      ],
      "min": [
        -0.2209586799144745,
        0.010933703742921352,
        -0.5450250506401062
      ],
      "type": "VEC3"
    },
    {
      "bufferView": 2,
      "byteOffset": 94176,
      "componentType": 5126,
      "count": 2318,
      "max": [
        0.9978579878807068,
        0.9992830753326416,
        0.9978558421134949
      ],
      "min": [
        -0.9995282292366028,
        -0.9992830753326416,
        -0.9987438917160034
      ],
      "type": "VEC3"
    },
    {
      "bufferView": 1,
      "byteOffset": 22120,
      "componentType": 5126,
      "count": 2318,
      "max": [
        0.0,
        0.0
      ],
      "min": [
        0.0,
        0.0
      ],
      "type": "VEC2"
    },
    {
      "bufferView": 0,
      "byteOffset": 53760,
      "componentType": 5125,
      "count": 13500,
      "type": "SCALAR"
    }
  ],
  "asset": {
    "extras": {
      "author": "AlbertVictory (https://sketchfab.com/albert_victory)",
      "license": "CC-BY-4.0 (http://creativecommons.org/licenses/by/4.0/)",
      "source": "https://sketchfab.com/3d-models/whatsapp-3d-logo-e51c67d110014bcdb71adf678f1bfc81",
      "title": "WhatsApp 3D-logo"
    },
    "generator": "Sketchfab-14.15.0",
    "version": "2.0"
  },
  "bufferViews": [
    {
      "buffer": 0,
      "byteLength": 107760,
      "name": "floatBufferViews",
      "target": 34963
    },
    {
      "buffer": 0,
      "byteLength": 40664,
      "byteOffset": 107760,
      "byteStride": 8,
      "name": "floatBufferViews",
      "target": 34962
    },
    {
      "buffer": 0,
      "byteLength": 121992,
      "byteOffset": 148424,
      "byteStride": 12,
      "name": "floatBufferViews",
      "target": 34962
    }
  ],
  "buffers": [
    {
      "byteLength": 270416,
      "uri": "scene.bin"
    }
  ],
  "images": [
    {
      "uri": "textures/material_baseColor.png"
    }
  ],
  "materials": [
    {
      "doubleSided": true,
      "name": "material",
      "pbrMetallicRoughness": {
        "baseColorTexture": {
          "index": 0
        },
        "metallicFactor": 0.0,
        "roughnessFactor": 0.5
      }
    },
    {
      "doubleSided": true,
      "name": "Material.002",
      "pbrMetallicRoughness": {
        "metallicFactor": 0.0,
        "roughnessFactor": 0.5
      }
    }
  ],
  "meshes": [
    {
      "name": "Object_0",
      "primitives": [
        {
          "attributes": {
            "NORMAL": 1,
            "POSITION": 0,
            "TEXCOORD_0": 2
          },
          "indices": 3,
          "material": 0,
          "mode": 4
        }
      ]
    },
    {
      "name": "Object_1",
      "primitives": [
        {
          "attributes": {
            "NORMAL": 5,
            "POSITION": 4,
            "TEXCOORD_0": 6
          },
          "indices": 7,
          "material": 1,
          "mode": 4
        }
      ]
    }
  ],
  "nodes": [
    {
      "children": [
        1
      ],
      "matrix": [
        1.0,
        0.0,
        0.0,
        0.0,
        0.0,
        2.220446049250313e-16,
        -1.0,
        0.0,
        0.0,
        1.0,
        2.220446049250313e-16,
        0.0,
        0.0,
        0.0,
        0.0,
        1.0
      ],
      "name": "Sketchfab_model"
    },
    {
      "children": [
        2
      ],
      "name": "root"
    },
    {
      "children": [
        3
      ],
      "matrix": [
        1.0,
        0.0,
        0.0,
        0.0,
        0.0,
        2.220446049250313e-16,
        1.0,
        0.0,
        0.0,
        -1.0,
        2.220446049250313e-16,
        0.0,
        0.0,
        0.0,
        0.0,
        1.0
      ],
      "name": "GLTF_SceneRootNode"
    },
    {
      "children": [
        4,
        5
      ],
      "matrix": [
        1.2412847893994439e-07,
        0.9671191844302568,
        0.25432357953390755,
        0.0,
        0.0920724868774365,
        -3.965317886636351e-09,
        -2.985913762590909e-08,
        0.0,
        -3.026840257880359e-07,
        0.2543235795339342,
        -0.9671191844302105,
        0.0,
        0.0,
        0.028894901275634766,
        -0.028064727783203125,
        1.0
      ],
      "name": "whats_app_1"
    },
    {
      "mesh": 0,
      "name": "Object_4"
    },
    {
      "children": [
        6
      ],
      "matrix": [
        -0.9671191820390803,
        0.0,
        -0.2543235886268905,
        0.0,
        0.0,
        10.861007690429688,
        0.0,
        0.0,
        0.2543235886268905,
        0.0,
        -0.9671191820390803,
        0.0,
        0.30346953868865967,
        0.6248126029968262,
        0.07167602330446243,
        1.0
      ],
      "name": "Plane.009_0"
    },
    {
      "mesh": 1,
      "name": "Object_6"
    }
  ],
  "samplers": [
    {
      "magFilter": 9729,
      "minFilter": 9987,
      "wrapS": 10497,
      "wrapT": 10497
    }
  ],
  "scene": 0,
  "scenes": [
    {
      "name": "Sketchfab_Scene",
      "nodes": [
        0
      ]
    }
  ],
  "textures": [
    {
      "sampler": 0,
      "source": 0
    }
  ]
}
