{
  "accessors": [
    {
      "bufferView": 1,
      "componentType": 5126,
      "count": 48,
      "max": [
        1.0,
        1.0,
        0.0
      ],
      "min": [
        -1.0,
        -1.0,
        -0.03297000005841255
      ],
      "type": "VEC3"
    },
    {
      "bufferView": 1,
      "byteOffset": 576,
      "componentType": 5126,
      "count": 48,
      "max": [
        1.0,
        1.0,
        1.0
      ],
      "min": [
        -1.0,
        -1.0,
        -1.0
      ],
      "type": "VEC3"
    },
    {
      "bufferView": 0,
      "componentType": 5125,
      "count": 120,
      "type": "SCALAR"
    },
    {
      "bufferView": 1,
      "byteOffset": 1152,
      "componentType": 5126,
      "count": 24,
      "max": [
        0.9133599996566772,
        0.9093800187110901,
        0.0
      ],
      "min": [
        -0.9280400276184082,
        -0.4661700129508972,
        -0.03297000005841255
      ],
      "type": "VEC3"
    },
    {
      "bufferView": 1,
      "byteOffset": 1440,
      "componentType": 5126,
      "count": 24,
      "max": [
        0.0,
        -0.0,
        1.0
      ],
      "min": [
        0.0,
        -0.0,
        -1.0
      ],
      "type": "VEC3"
    },
    {
      "bufferView": 0,
      "byteOffset": 480,
      "componentType": 5125,
      "count": 60,
      "type": "SCALAR"
    },
    {
      "bufferView": 1,
      "byteOffset": 1728,
      "componentType": 5126,
      "count": 80,
      "max": [
        1.0600800514221191,
        1.0710300207138062,
        0.0
      ],
      "min": [
        -1.0600800514221191,
        -1.0,
        -0.2631799876689911
      ],
      "type": "VEC3"
    },
    {
      "bufferView": 1,
      "byteOffset": 2688,
      "componentType": 5126,
      "count": 80,
      "max": [
        0.99376380443573,
        0.999993085861206,
        1.0
      ],
      "min": [
        -0.9937618970870972,
        -1.0,
        -1.0
      ],
      "type": "VEC3"
    },
    {
      "bufferView": 0,
      "byteOffset": 720,
      "componentType": 5125,
      "count": 120,
      "type": "SCALAR"
    }
  ],
  "asset": {
    "extras": {
      "author": "PhantomXD (https://sketchfab.com/PhantomXD)",
      "license": "CC-BY-4.0 (http://creativecommons.org/licenses/by/4.0/)",
      "source": "https://sketchfab.com/3d-models/old-gmail-logo-f8c066b10d1a475abbd69ebbe9de2b83",
      "title": "Old Gmail Logo"
    },
    "generator": "Sketchfab-12.68.0",
    "version": "2.0"
  },
  "bufferViews": [
    {
      "buffer": 0,
      "byteLength": 1200,
      "name": "floatBufferViews",
      "target": 34963
    },
    {
      "buffer": 0,
      "byteLength": 3648,
      "byteOffset": 1200,
      "byteStride": 12,
      "name": "floatBufferViews",
      "target": 34962
    }
  ],
  "buffers": [
    {
      "byteLength": 4848,
      "uri": "scene.bin"
    }
  ],
  "extensionsRequired": [
    "KHR_materials_pbrSpecularGlossiness"
  ],
  "extensionsUsed": [
    "KHR_materials_pbrSpecularGlossiness"
  ],
  "materials": [
    {
      "doubleSided": true,
      "extensions": {
        "KHR_materials_pbrSpecularGlossiness": {
          "diffuseFactor": [
            1.0,
            1.0,
            1.0,
            1.0
          ],
          "glossinessFactor": 0.39635280812797546,
          "specularFactor": [
            0.050351434008840575,
            0.050351434008840575,
            0.050351434008840575
          ]
        }
      },
      "name": "Material.001"
    },
    {
      "doubleSided": true,
      "extensions": {
        "KHR_materials_pbrSpecularGlossiness": {
          "diffuseFactor": [
            0.6866853833198546,
            0.0030352696776390093,
            0.0030352696776390093,
            1.0
          ],
          "glossinessFactor": 0.4,
          "specularFactor": [
            0.17100835994514985,
            0.03502221988220757,
            0.03502221988220757
          ]
        }
      },
      "name": "Material.002"
    }
  ],
  "meshes": [
    {
      "name": "Plane_0",
      "primitives": [
        {
          "attributes": {
            "NORMAL": 1,
            "POSITION": 0
          },
          "indices": 2,
          "material": 0,
          "mode": 4
        }
      ]
    },
    {
      "name": "Plane_1",
      "primitives": [
        {
          "attributes": {
            "NORMAL": 4,
            "POSITION": 3
          },
          "indices": 5,
          "material": 1,
          "mode": 4
        }
      ]
    },
    {
      "name": "Plane.001_0",
      "primitives": [
        {
          "attributes": {
            "NORMAL": 7,
            "POSITION": 6
          },
          "indices": 8,
          "material": 0,
          "mode": 4
        }
      ]
    }
  ],
  "nodes": [
    {
      "children": [
        1
      ],
      "matrix": [
        1.0,
        0.0,
        0.0,
        0.0,
        0.0,
        2.220446049250313e-16,
        -1.0,
        0.0,
        0.0,
        1.0,
        2.220446049250313e-16,
        0.0,
        0.0,
        0.0,
        0.0,
        1.0
      ],
      "name": "Sketchfab_model"
    },
    {
      "children": [
        2,
        5
      ],
      "name": "Root"
    },
    {
      "children": [
        3,
        4
      ],
      "matrix": [
        1.2247,
        0.0,
        0.0,
        0.0,
        0.0,
        -0.0,
        1.0535299999999999,
        0.0,
        0.0,
        -1.2247,
        -0.0,
        0.0,
        0.0,
        0.0,
        -0.07043,
        1.0
      ],
      "name": "Plane"
    },
    {
      "mesh": 0,
      "name": "Plane_0"
    },
    {
      "mesh": 1,
      "name": "Plane_1"
    },
    {
      "children": [
        6
      ],
      "matrix": [
        1.39859,
        0.0,
        0.0,
        0.0,
        0.0,
        -0.0,
        1.36273,
        0.0,
        0.0,
        -1.36273,
        -0.0,
        0.0,
        0.0,
        -0.13544000000000003,
        0.0,
        1.0
      ],
      "name": "Plane.001"
    },
    {
      "mesh": 2,
      "name": "Plane.001_0"
    }
  ],
  "scene": 0,
  "scenes": [
    {
      "name": "Sketchfab_Scene",
      "nodes": [
        0
      ]
    }
  ]
}
